<mxfile host="65bd71144e">
    <diagram id="JArfr1nSKUA_bPV7IFHR" name="Page-1">
        <mxGraphModel dx="1086" dy="658" grid="1" gridSize="10" guides="1" tooltips="1" connect="1" arrows="1" fold="1" page="1" pageScale="1" pageWidth="827" pageHeight="1169" math="0" shadow="0">
            <root>
                <mxCell id="0"/>
                <mxCell id="1" parent="0"/>
                <mxCell id="2" value="" style="shape=image;verticalLabelPosition=bottom;labelBackgroundColor=default;verticalAlign=top;aspect=fixed;imageAspect=0;image=data:image/png,iVBORw0KGgoAAAANSUhEUgAAAQ4AAAFnCAIAAADYKDBgAAAAAXNSR0IArs4c6QAAIABJREFUeAHtXQ2MXUXZnpDa7Db0L+CGfkBctVlcUvxBKUVZUrWp1UKDhvi3FZoNWCtKpJAuVvnbGBAwga22gKEGEqIQq6CoUVksLWBbtLIV3HahAstGVoOwLS0W9+7e+Vrm+yazc94z875z3jv3bHduCJmZO+/f885zz71373kqnh4ce3zbE/9zxT9Z/pMcj4GBAaqbABMwBJefKVOmCOJjypQpYEoxF7nKZ8m5bMkITZWC5SmmFXSizAMwCjABU+Xyk6gCwkta5OoFKWje5oGBgUSVceBwtSdRZRysQROuXgQFt40SVQBE7KWgeaJKEGzjjBJVxsEBTgIwCjDhCg36SVQBYSEtcvWUFDRvc7qq2MhwtYeRKgcPHuzr69u2bds///lPO13uOVh+pVLZu3fv9u3bh4aGuAO6/JUtGddnlY9//OPqW5yf//znrprees7xsZ7kR0oJYuROwDI54YQTzO+fZs6cedZZZ1133XX//ve/4/hhocobb7xx8cUXm4W0tLR0d3e7S0A++8gjj9x0003WZgvGarV68803z549W+dwyimnbNy40bKq0bRsyeRS5YUXXhBCHHvssUKIz372s1448qhC9eOgyo033njnnXeCmViwKqqcdtppi956fOADH1Bn9/TTTwfN9SKXn+JUqVQqZ5xxhjqjTU1NZ5555jHHHKOmN998s044eNDW1nb88cdb5lb51157rRDixBNP7OjouOqqq5YtW6YSuO+++yzDWkzLlkwuVW644QYhxOrVq2fPnt3Q0PDaa6+54cijCtWPgyozZ84844wzwDQsWBVV7r77br35l7/8pWrz3//+d72YHXD5KU6VW2+9VQgxY8aMnp4elee+ffu+/e1vCyFmzZq1f/9+tTg0NHTffffdfPPNGzdu7O3t1RVt3ry5q6tLn+lKpdL11uOVV17p7++/+uqrhRDTpk3r6ur6/e9/r62s8k866SQhxL333qs3rFix4pxzzlEXlhdeeKGrq8u8NG3cuLGrq+tPf/qTlPLJJ5/s6ur66U9/+q9//euee+654447/vGPf0gpX3zxxY0bN65bt+6FF17QbsFB2ZLJpcqpp54qhNi6dWtHR4cQIu/lXBeZRxWqnxpR5Te/+Y06HPqQ6czNgdWeLOWQfopTRV1S1qxZY6YnpfzhD3/41FNPVatVKeXGjRvVZV+9CgghOjo61P6uri4hxAUXXKCmhw4dUnt27979q1/9Su8XQpghrPJnzJghhLj66qutHNR08+bNQgjz0tTW1qaPysaNG4UQ55577nvf+14Vbtq0aTt37mxqalLTxsbGp556CvSsFsuWDEyV7du3CyHmzZsnpVTILly40FHV4RaCVAnwY1FlZGRk8/8/jj322NbWVjXbunWrmY8FqzriF1xwgXopveiii4499thZs2b9+Mc/Nq2yYy4/xakybdo0IcT999+fTVKtvPzyy9OnTxdCfOtb33rllVd6enre8Y53CCHUlcRBFSnlY489Zp1y5dMqf+XKlepYn3rqqZdddtnGjRt37dql83FT5e677xZCNDY2XnfddXv37j399NPV9fA73/nOs88+e9pppwkhLr/8cu0tOyhbMjBVLrvsMiHEtddeK6X873//qz7Yud+6gFQJ8GNR5ZVXXjFfAvV45syZJrgWrIoqerMaLFq06N5771Wvx6atOebyU5Aq+/fvVzk/8sgjZnrmeP369UKIU089VVe0Zs0aIcT5558vpWShytjY2O233/7Od77TRPL0009/+eWXpZQYqjQ1NVUqFSllZ2fn4QvOnDlzxsbGpJTf+MY3hBCf/vSnzYqssdWLuicDUGVkZERdJVesWKFelVtbW4UQXV1dVjHmNEuVMD8WVd544w2VQ1dXV0NDw0knnaSmN954oxndglVRZe3ateoS9MADD6i3kUKIW2+91TS0xlx+ClJFSnnccccJIX7yk59YGerp5ZdfLoRYtmyZXtmwYYN+L8BCFeW5Wq3u2rXrrrvu+sIXvqC+WvjEJz6BpMoHP/hB5eSOO+4QQpx99tlqettttwkhlixZopPPDqxeqA11TAagyoMPPmi+iujxe97zHpXuQw89tGLFivPPP3/t2rVvvvmmWsxSxetn//79K1euXLRokQUTiJGUssjHeinlhRdeePjT18c+9jEpJViCxVIpZfaziuUnr4TiVPnIRz4ihFi1apUJzsjIyFe+8pX7779/ZGTk+uuvF0KY6H33u98VQpxzzjn6qrJ48WJlPjQ0pPq4e/du/Bsw9RcVM4F7771X+RkbG1NXlcbGxpGREbVHva1SH2vVGzD9Ncydd94phGhra1M7u7u7NVWeeeaZr371q+edd97Xvva1vXv36nDWMYiTzNjY2I033rho0SLrcxT8J8jPf/7zQogvfvGL//8ZYfPDDz88depUIcQTTzwhpTzrrLO+9KUv/eIXvxBCPPDAA6q2LFW8fq644orly5cffqen0VEDCyP9bEGqfOYznxFCLF++PK8EJFVMP3klFKeKOltCiO9///sKgX379n35y19WHwAGBgZ+/etfH372uOOOO3TokNpw7rnnCiGuvPJKKaU6i7Nnz1ZveH7wgx9kqTJr1iyNrRqYyD/00EPTpk2bOXPms88+q7ep7zPf/e53Symfeuop5fPPf/6zlLK3t1ddc6hUueKKK973vvc9//zzjY2N5qeXuiRz1113rV69WgixefNmXbU6GPZVZXh4uKGhQX33ZW793Oc+J4S49NJL9eLatWunTJmyZ88etWJRBelHveHWPtXAxMh86rzzzlu5cqW5oseWiboa6L+rLFq06P3vf//h95DHHHPMk08+qa2sEvKo4vYDllCcKtVqVf/p9vjjj1+wYMHb3vY2dTRvuOEGVcLZZ58thPjkJz/54IMPqo+FM2fOVH/U37p1q9p85plnXnLJJWeddZb6rqyvr09K+fTTT6tnr7nmGvPjkAnjwYMHTznlFCFEQ0PDpz71qSuvvHLBggVmAgcOHJg1a5YQorm5+etf//rcuXM/9KEPCSHuuOMOKSX+qqJq+d3vfieEMP++Wa9kFDh+qqj3lO9617v0eVKDBx54QAjx9re/fWRkZP/+/RdffPGcOXNMlC2qYPxIKcFzZmJkpZE3tUwUVVRfhRBTpkxpaWm54IIL9N8QwBLyqOLwk1dCcapIKd98880rr7xSRz/8hVhra6s6iAqHoaGhRYsW6Q0tLS3qBV49+6Mf/ejkk08+/IHnlFNOee6550488cTDn23+8pe/SCmr1aq6ngshLrroIo2qBeNLL73U3t6uvotTUU4++eTbb79d73/88cfnz58vhJg9e/bPfvaz9vb2w19z3XbbbSSqjI6Orlu3rrGx0foYWZdk9OuInyoahbzB2NjYhz/84aampk2bNm3evFn/IcmiSp65tV4jqlhRrGleCVmqWIbgFCyBhSoq3H/+85/+/v4//vGPeT/Bevnll7dt2/b888+r91pmkiMjI3/729/MFXP8zDPPPProo+YfmqzTqTaPjIw899xz27ZtGxwc1N+2WX70xxVzHTlWX9x1d3dv3rzZ/IRQl2Q4qbJv3z71axH1f/0X8QCqXHjhhdrVo48+qpEFMdLPggOSSV4JAVTJK4GRKmC9NVokwciVw8UXX6yPwerVq7XbuiTzve99Tyezbt06Mxn7s4p+jjoIoEpeiACMAkzA6Fx+ElVAeEmLXL0gBc3bDH8DlrfbvZ6oYuKTqGKiETZOVPHjFoBRgAmYB5efRBUQXtIiVy9IQfM2j7uqqMtCwf/nRSKtB2AUYAKmxOUnUQWEl7TI1QtS0LzNR6jy+LYnGMWNBtLjLQSmBD0SeGVG4Mhfyh/fduRv8MUfXC8DAX4CTMB6ufykqwoIL2mRqxekoHmbj1xVElVMdLjak6hioho25upFWHTLKlHFAiTktn7bxVvzRBUQFtJiooofrgCMAkzAPLj8JKqA8JIWuXpBCpq3OV1VbGS42pOoYiNLn3P1gh4ZsMBS5dVXX92+ffu+ffsAH8aStzYuP0bM/xtGC40sIT5VkIlloTNXvDCam8FxpVLZtWtXX19f9gdp4H7HYtmS8X+sv+mmmxoaGubPn9/Q0HDPPfcE18blB0zADStXaLyfyFTBJwaipxfdMOpteYPBwcHW1ta5c+eedNJJCxYsGB4eztuJWS9bMh6q9PX1nXDCCS+99JKUcvfu3dOnT3/11Vfz6nTUxuLn1ltvffjhh8HotQ4tpSSVEJMqpMRA9PSiA0a9xzFob2/v7OxUP/Lv6OgwtWAcVnlPlS0ZD1Wuv/76FStW6GIWL15811136ak1cNTG4ufSSy81NanM6LUOLaUklRCTKqTETNCyYweM2c3WyqFDh6ZOnarv+N2yZUtzc7O1hzQtWzIeqhy+70fptqgiL7nkkm9+85t5BTtqY/ETRhWW0FJKkp+YVCElltc7te7ooNtQSvncc88dFg3TH1GOfA4Wosh9LGVLxkOVZcuW3XLLLRqm1atX592y677Zo4if++67T9/opwf6ljJvj4uE1oVLKUl+YlKFlJhZUXZc5HTu2LFj+vTp2ufw8LAQYnBwUK9QB2VLxkOV7CvWVVddlVezozYWP1xXlQglxKQKCdu83ql1RwfdhnlXFSUC5rUFN5QtGQ9VOjs7lcSJKuajH/2oFhDJlueojcVPGFVYQivRNzwUMalCKjDbNXPF0UFzGzg+ePCgEELLkvT09DQ1NYE7kYtlS8ZDle3bt0+bNu2vf/2rlPIPf/jD1KlTrXc+ZtmO2lj8hH0DxhJaSknyE5MqpMTMfmXHjg5mN2dXli5dql5NRkdHFy9ebImYZfe7V8qWjIcqSlFK/V2lsbFx06ZNjvLctXV3d7P4AROIExpfQkyqkHoEoqcX3TDqbXmDoaGhefPmtbS0zJkzZ+HChQcOHMjbiVkvWzJ+qkgpX3vtte3bt7/++uvuCr21cfnJphEtNLKEyFTB9ygLnbnihdHcDI5HR0d7e3v7+/tBbRfQJG+xbMmgqJJXjLVevDblMMBPgImVfHBo0E98qoBpUBe5YKTGBfeXLZlElXFt4mpPoso4WIMmXL0ICm4bYX8uadvlzLlqC/ATYAIWweUnUQWEl7TI1QtS0LzNiSo2MlztSVSxkaXPuXpBjwxYHKGKkqEYSA9WBIJUKKawppCcMSOQPqtI88H1SpauKiaqYWOuXoRFt6zSGzALkHRv/YCNSP3miSp+7AMwCjAB8+Dyk64qILykRa5ekILmbU5XFRsZrvYkqtjI0udcvaBHBiwSVWxQuNqTqGIjS59z9YIeGbDAUgUpceCtjctPtpRoocfGxrZu3eq4a1rlFp8qSGyz0JkrXhjNzeC4VDIU6h6qnTt3gqmSFlFUwUscuIHm8gNWGCf0iy++uHDhQiHEb3/7WzANvRiZKnhsdYbgwA0jaGIulkqGQkq5YcOGGTNm6H/W2EyVOvZThSRx4ACaxU/Yj/BZQitkm5ub161bd1iOpFRUIRXoPiKODroN1bOlkqFYv359W1vb2rVrI1GFJHHgAJrFT9itXSyh1VF4+umnpZRlowqpQPeJd3TQbXj41rdSyVAogaFKpXLnnXdGokr2ZtRJK0Ohz0rZqELqka4CHBShSqlkKHR18ahCkjhwAF3ET0lkKDT6ZaMKCVtdBThwdBDcby6WSoZCJxaPKtlXrAgaDnkNC3sDxlWCRr9sVCEVqKsAB3nIg5utRfCqUi8ZCp1bPKqQJA4cQLP4CaMKS2gNfQk/q5AKNAvJjh0dzG62VkolQ6Fzi0cVksSBA2gWP2HfgLGE1tCXkCqkAs1CsmNHB7ObsyulkqFQ6cWjCkniwA00XsPB7SfbIbdaH1cJjz32mBbsU4NrrrkGTEZKGfnvKnhs8xJW6wHImw5LJUOxZMkSq18F3w2ifoSP1F7wAs3lx2wPsse1C51NJj5VkgwF2AXGRf+fIEnBvFRBegvwE2ACJsPlJ/JVBawlYJGr/IDQWZOyJYO6qmTLAFe4agvwE2BS0xISVUB4SYtcPSUFzducrio2MlztSVSxkaXPuXpBjwxYJKrYoHC1J1HFRpY+5+oFPTJgcYQqSYZioAaPJENRA1Dr7DJ9VpHmg+uVLF1VTFTDxly9CItuWaU3YBYgSYYiyVDYR0LNE1VsXLheydJVxUaWPufqBT0yYJGoYoPC1Z5EFRtZ+pyrF/TIgEWiig0KV3sSVWxk6XOuXtAjAxZYqiAlDry1cfnJluINjZSP8PpBlhCfKsjEstCZK97yzc1544GBAS7lh7wQyHVeTQz/N2B4iQM30Fx+QJjcofHyEW4/+BIiUwWfGIieXnSXr7c5BrzKD45A3qfYNTE8VCFJHDiAZvET9iN8KSVePoKrhJhUIWHrPmGO8t2G6ll25QdM0Lw97JoYHqqQJA4cQLP4Cbu1S0qJl4/gKiEmVUjY5h0ste4o322ont29ezev8gMmKLinFpoYHqpkb0adcDIUGkrMjb6Os0KCIiZVSIlpNMCBo3xwP7jIeDcV6B+zCN69PDIygrEF9/g/1pMkDhxAF/FTUIZCV16QKqQSYlKFlJhGAxw4OgjuBxfLQJVaaGKQryoTToZCt7MgVbIv3g4oYlKFlJhGAxwcNVQBryq1vQuSJHHgAJrFT/BnFXUsClKFVEJMqpASAxmiFx0d1Hu8gzJcVWqhieG5qpAkDhxAs/gJ/gZMdbcgVUglxKQKKTH3QXd00G1oPlsGqkgp2TUxPFTh0nBg9GN2RY8dPSbJRzj8kEqISRVSYhoxcOAuHzQxF9mVH0zn1DG7JoafKniJAy/QtdOC8IZGAu31gywhMlXwPXLj4C3fbc77bPFkRkdHe3t7+/v7q9Vqwdz834CRAhSvTYUL8BNgApbG5Sc+VcByqItc5VPjgvvLlgzqqgJWkl3kqi3AT4BJNn+vnhhoAi4mqoCwkBa5ekoKmrc5XVVsZLjak6hiI0ufc/WCHhmwSFSxQeFqT6KKjSx9ztULemTA4ghVkgzFQA0eSYaiBqDW2WX6rCLNB9crWbqqmKiGjbl6ERbdskpvwCxAkgxFkqGwj4SaJ6rYuHC9kqWrio0sfc7VC3pkwCJRxQaFqz2JKjay9DlXL+iRAYtEFRsUrvYkqtjI0udcvaBHBiywVEFKHHhr4/KTLcUbmkuGAuknPlWQ2GahM1e8MJqb88blkaFQf1Pm0sTwfwOGlzhwA83lB+yQOzSXDAXeT2Sq4LEF0dOLbhj1NsegPDIUUkreZDxUIUkcOIBm8RP8I3wWGQqSnEVMqpCwdZzy4r/rKZUMBXsyHqqQJA4cVGHxE3xrF4sMBUnOIiZVSNjWlCrlkaGQUrIn46FK9mbUSStDoQ8Z5haxmFQh9UhXAQ4cL3bgfnCxJLd2qdwYk/FQhSRx4AC6iJ+SyFDoY1E2qpCw1VWAA0cHwf3gIuPpBP2TFhmT8VAl+4rl0F5wAM3iJ/gNmAIXc8QdJegOYfzU96ri6JGuAhxgygcNzUXG02m6DRszJuOhCkniwAE0i59EFfC4kLAFPehFRwf1Hu+A8XR6Y3k3MCbjoQpJ4sABNIuf4G/AFKCYq4GjBN0VjJ+YVxUStroKcIApHzQ0FxlPp+k2bMyYjIcqJIkDN9Dd3d0NDQ3z589vbGzctGmTo3K3H9DQYcIlQ0HyE5MqpB6B6OlFB4x6j2NQKhkK9mT8VMFLHHiBRmo4eP1kuxVgknVS/A8L2mdkquB7pDMEB1wwgs6pi2VLBkUVZJFctQX4CTABi+LyE58qYDnURa7yqXHB/WVLJlFlXJu42pOoMg7WoAlXL4KC20bYn0vadjlzrtoC/ASYgEVw+UlUAeElLXL1ghQ0b3Oiio0MV3sSVWxk6XOuXtAjAxZHqJJkKAZq8EgyFDUAtc4u02cVaT64XsnSVcVENWzM1Yuw6JZVegNmAZJkKJIMhX0k1DxRxcaF65UsXVVsZOlzrl7QIwMWiSo2KFztSVSxkaXPuXpBjwxYJKrYoHC1J1HFRpY+5+oFPTJggaUKUuLAWxtSw8HrJ1uK14SrBKSf+FRBJpaFzlzxwmhuBseVSmXXrl19fX1jY2PgBvxi8WQmqgwFXsMhACO3CV6lgctPZKrgC3SfVHf5blsp5eDgYGtr69y5cw//+HrBggXDw8NeE8eGgslMVBkKkoZDHkZhP8InqTTkhZZSkvzEpAopMcfRLP5r0fb29s7OTilltVrt6OhYs2aNO5z7WUcv3Ibq2YkqQ0HScMjDKOzWLpJKQ15oKSXJT0yqkBJzHzJH+W5DKeWhQ4emTp26d+9etXPLli3Nzc1eK8eGIslMYBkKjQjmvqg8jMKokr1XOYKSRkyqkArUjQAHeciDm61F8J+KHxkZsbbhp0WS0VHi3dpFkjjA1BZAlYIyFFwlkPzEpAopMX2GwAGmg6ChlHLHjh3Tp0/Xzw4PDwshBgcH9Qp1UCQZHSseVbKvWA6JA0xtAVTRZXNdVcJKIEERkyqkxDSY4ADTQdBQSgleVSqVSt5+73qRZLTzeFQhSRxgaotPFa4SSH5iUoWUmD5D4ADTQdBQSnnw4EEhxJ49e9SGnp6epqamvM2Y9SLJaP/xqEKSOMDUVoQqYd+AcZVA8hOTKqTE9BkCB5gOgoZqcenSpcuXL5dSjo6OLl68eNWqVY7N3qcKJqP8x6MKSeLAURtJw8HhJw9ftwmXAgbeT0yqkHqUB6Bad8PotpVSDg0NzZs3r6WlZc6cOQsXLjxw4IDXxLGhYDITW4bCgYv5VABGXhMuBQykn8hUKY8MxejoaG9vb39/f7VaNXsaMPb2NMBnsAn2hy3IAFy1BfgJMAGL4vITnypgOdRFrvKpccH9ZUsm3do1rk1c7UlUGQdr0ISrF0HBbaN0VQEQsZeC5okqQbCNM0pUGQcHOAnAKMCEKzToJ1EFhIW0yNVTUtC8zUeuKkmGYqAGjyRDUQNQ6+wyfVaR5oPrlSxdVUxUw8ZcvQiLblmlzyoWIEmGIslQ2EdCzRNVbFy4XsnSVcVGlj7n6gU9MmCRqGKDwtWeRBUbWfqcqxf0yIBFoooNCld7ElVsZOlzrl7QIwMWWKogJQ68tR0FMhTIEuJTBdkj4BQYS94OGntzhwMDAzt37sx9Gv1E8WR4NTH834DhJQ7ctR0FMhT4EiJTBd8j90F1d9Btq57dsGHDjBkz2traMJvdewomw66J4aEKSeLAXVtzc/O6devi/wi/LiXEpAqpwJqeTnblB3e27mfZNTE8VCFJHLip8vTTT0spi1Al7C7IupQQkyqkAt3Hy91Bt20tlB+8EfM21EITw0OV7M2oYRoOuqT4VKlLCTGpQipQNwIcFKSK8sl4NxWYJGYRvHu5oCaGhyokiQMM0AFUKYkMhe4QpoSYVCH1SFcBDjAdBA3NxTJQpRaaGB6qZF+xwjQcNJSYc5bXsLA3YHUpISZVSAXqRoCDPOTBzXmLZaAKeFUpqInhoQpJ4gADdHyq1KWEmFQhFZh3vtU6poNuD1LKMlClFpoYHqqQJA4wQBehSn1lKPQRwZQQkyqkHukqwAGmg6ChuVgGqkgp2TUxPFQhSRw4gD4KZChIJcSkCqlH5pnOjh0dzG7OrrArP2RD4FfYNTH8VMFLHBQEWqMQ4MdrgpSP8PrRSboHkamC75E7ba7y3VGQzxZPhlcTA0WVaLWpQAEYBZiARXH5iU8VsBzqIlf51Ljg/rIlk6gyrk1c7UlUGQdr0ISrF0HBbSPszyVtu5w5V20BfgJMwCK4/CSqgPCSFrl6QQqatzlRxUaGqz2JKjay9DlXL+iRAYsjVEkyFAM1eCQZihqAWmeX6bOKNB9cr2TpqmKiGjbm6kVYdMsqvQGzAEkyFEmGwj4Sap6oYuPC9UqWrio2svQ5Vy/okQGLRBUbFK72JKrYyNLnXL2gRwYsElVsULjak6hiI0ufc/WCHhmwwFIFKXHgrQ2p4eD1ky3Fa8IVGglFfKogE8tCZ654YTQ3543LI0Mh5ZEPn1yaGP5vwPASB26g8RoObj9gh9wmXKHxUESmCj4xED296IZRb3MMyiNDIaXkTcZDFZLEgRvoeslQSCmLh5ZSkqCISRVSYo5Trl6D3Rvcz5ZKhoI9GQ9VSBIHbqrUS4ZCSlk8tJSSBEVMqpASc591dwfdtqWSoahFMh6qZG9GnXAyFLrBmFuyHGeFBEVMqpAS02iAA0f54H5wsSS3dqncGJPxUIUkcYABOuC8FpSh0O0MCK1tpZQkKGJShZSYWVF2jOlg1spaYTydlueAKWMyHqpkX7EmnAyFxrcgVUhQxKQKKTGNBjhIVAFhUZ/iPFQhSRxggC5yXsMUW3TxRUJLKUlQxKQKKTGNBjjAdBA0NBcZX8hNt2FjxmQ8VCFJHGCALnJew2QoNMRFQkspSVDEpAopMY0GOMB0EDQ0FxlPp+k2bMyYjIcqJIkDB9AkDQeHnzy8HCaMobu7uxsaGubPn9/Y2Lhp06a8ZKSUMalC6pEj5+JfFpdKhoI9GT9V8BIHjvPq7pD1bICfABMrqJp6/SDlLCJTBd8jsGq96C1f74wwKFsyKKogceGqLcBPgAlYFJef+FQBy6EucpVPjQvuL1syiSrj2sTVnkSVcbAGTbh6ERTcNsL+XNK2y5lz1RbgJ8AELILLT6IKCC9pkasXpKB5mxNVbGS42pOoYiNLn3P1gh4ZsDhClSRDMVCDR5KhqAGodXaZPqtI88H1SpauKiaqYWOuXoRFt6zSGzALkCRDkWQo7COh5okqNi5cr2TpqmIjS59z9YIeGbBIVLFB4WpPooqNLH3O1Qt6ZMAiUcUGhas9iSo2svQ5Vy/okQELLFWQEgfe2ri0ILKlRAuNLCE+VZCJZaEzV7wwmpvBcaVS2bVrV19f39jYGLgBv1i2ZPzfgOElDty1cWlBgFjHCY0vITIlLcJ6AAAWdElEQVRV8ImB6OlFN4x6W95gcHCwtbV17ty5h3/EvWDBguHh4bydmPWyJeOhCkniwF1bcS2I4B/hFw+tWov3E5kq+MTcZ9TdQbetlLK9vb2zs1NKWa1WOzo61qxZ4zVxbChbMh6qkCQO3LUV14IIvrWreGjVUbyfyFTBJ+Y4mgV/hH/o0KGpU6fu3btXhdiyZUtzc7M7nPtZ93Fy29YiGQ9VsjejTloZCt0bzC1ikamicsMkpqsAB0VOJ/hPxY+MjICBMItlS8ZDFZLEAaY2TDstPyWRodDdxZQwCamyY8eO6dOna5SGh4eFEIODg3qFOrCOAcm8Fsl4qJK9qkxaGQrdqkQVDYU5AK8qlUrF3EMaF6FKLZLxUIUkcYCpDXPO8vwEf1ZRHSoS2uwxxs8kvKocPHhQCLFnzx6FVU9PT1NTk4kbdZx3DDB+apGMhyokiQNMbZhzlucn+BswBW6R0GZ7MH4mIVWklEuXLl2+fLmUcnR0dPHixatWrTJxo47zjgHSD3syHqqQJA4ctTFqQYBIRQhNKiEmVUiJgejpRQeMeo9jMDQ0NG/evJaWljlz5ixcuPDAgQOOzd6nypaMnyp4iYOCtWnsAvwEmOhw5oDLT0yqmPkXHBcvf3R0tLe3t7+/v1qtHmXJoKiCrLk40CpQgJ8AE7AoLj+TliogqmGLXL0Ii25ZYX8DZpnlTblqC/ATYAJWweUnUQWEl7TI1QtS0LzNiSo2MlztSVSxkaXPuXpBjwxYJKrYoHC1J1HFRpY+5+oFPTJgcYQqSYZioAaPJENRA1Dr7DJ9rJfmg+uVLF1VTFTDxly9CItuWaU3YBYgSYYiyVDYR0LNE1VsXLheydJVxUaWPufqBT0yYJGoYoPC1Z5EFRtZ+pyrF/TIgEWiig0KV3sSVWxk6XOuXtAjAxZYqiAlDry1cclZZEuJFhpZQnyqIBPLQmeueGE0N+eNBwYGdu7cmfcsfr14MryaGP5vwPASB+7auOQsQKzjhMaXEJkq+MRA9PSiG0a9zTHYsGHDjBkz2traHHuQTxVMhl0Tw08VvMSBozYWOYuwH+GzhJZSkvzEpAopMfcxdXTQbaieXb9+fVtb29q1a8tAFXZNDD9V8BIHDqBZ5CzCbu1iCS2lJPmJSRVSYu4T7+ig21A9u3v37kqlwvgvlWKCgnvqIEOh88Dcz+QAOnvjcYCcRRhVWEJLKUl+YlKFlJhuKDhwdBDcDy6WgSrgDcMFNTH8VxUFR0GqFJGzKChDUSS0eRRIfmJShZSYWVF2fNRQpQ4yFBrNglTJvvIFyFlwXVUCQoNXFYefmFQhYasbCg6OGqqAV5WCmhiRrioschZhVGEJLaUk+YlJFVJiIEP04lFDlTrIUGgQC15VWOQswr4BYwktpST5iUkVUmK6oeDgqKFKLTQxPFcVksSBG+ju7u6Ghob58+c3NjZu2rQJbJVadPsBDd0mXKHxfmJShSQVAqKnF90w6m15gyVLlojxj4LvefICYdbZNTE8VMHkpPd4gX7ttde2b9/++uuvaxNw4PWTtfKacIVG+olMFbxUSBY6c8ULo7m51uPiyfBqYkSlChLcAIwCTMBkuPzEpwpYDnWRq3xqXHB/2ZJJVBnXJq72JKqMgzVowtWLoOC2EfbnkrZdzpyrtgA/ASZgEVx+ElVAeEmLXL0gBc3bnKhiI8PVnkQVG1n6nKsX9MiAxRGqJBmKgRo8kgxFDUCts8v0WUWaD65XsnRVMVENG3P1Iiy6ZZXegFmAJBmKJENhHwk1T1SxceF6JUtXFRtZ+pyrF/TIgEWiig0KV3sSVWxk6XOuXtAjAxaJKjYoXO1JVLGRpc+5ekGPDFhgqZJkKDR4SCjiUyXJUOgemQNGTQz/N2BJhkJDj4ciMlWSDIXukTng1cTwUyXJUGj08VDEpEqSodANMgfsmhh+qiQZCt0APBQxqZJkKHSDzAG7JoafKip8wVu7sje1TjgZCt0GDBQxqULCVlcBDlg+SZdBhkJXx5hMJKqQpBKshpVEhkKjXzaqkLDVVYADC3lwj3eR8XR6Y3k3MCYTiSrZVz6HhkNew8LurWcJbbakbFQhFWgWkh3nIZ/d6VhhPJ2OKMinGJOJRBWSVEJew8KowhLabEzZqEIq0CwkO85DPrvTscJ4Oh1RkE8xJhOJKiSphLyG1VeGQvembFQhYaurAAd5yIOb8xYZT2deCPw6YzIeqiQZCt0VEhQxP9YnGQrdI3PAronhoYoZ2zv2viYhNRy8frKZeE1qFzqbjJQyMlWSDAXYBcZF7A9bkCG957V2fuoYGiwqPlXANKiLXDBS44L7y5ZM1KsKiEh2MQCjAJNsXCnT/SrpfhXwXBw5GIkq46Dholy6qoyDNWjC1Yug4LZRogqAiL0UNE9UCYJtnFHpqJJkKAZq8EgyFDUAtc4u0xswaT64XsnSVcVENWzM1Yuw6JZVegNmAZI+1qeP9faRUPNEFRsXrleydFWxkaXPuXpBjwxYJKrYoHC1J1HFRpY+5+oFPTJgkahig8LVnkQVG1n6nKsX9MiABZYqSO0Fb21IqQSvn2wpXpPIJcSnCrLALHTmihdGczM4rlQqu3bt6uvrGxsbAzfgF8uWjP8bMLz2grs2vFSC2w+ItdskfgmRqYIvEERPL7ph1NvyBoODg62trXPnzj384+sFCxYMDw/n7cSsly0ZP1Xw2guO2khSCXl+wn6EL6WMX0JkquALdJ/RPOTdVvrZ9vb2zs5OKWW1Wu3o6FizZo1+KmBQtmT8VMFrLzhqI0kl5PkJu7VLShm/hMhUwRfoPrJ5yLut1LOHDh2aOnXq3r171XTLli3Nzc0Yw7w9ZUvGTxVVCeZ+Jkdt2Ztao8lQ6E7ELCEyVfA90miAA0cHwf3mIvhPxY+MjJh7SOOyJROJKiSpBAujgjIUuj0FqUIqYRJSZceOHdOnT9doDw8PCyEGBwf1CnVgHQOSeS2SiUSV7FUlmgyFhrggVUglTEKqgFeVev1j3LVIJhJVSFIJeS8nwZ9VFFsKUoVUwiSkysGDB4UQe/bsUWj39PQ0NTXp16mAQd4xwLiqRTKRqEKSSsjDKPgbMAVuQaqQSpiEVJFSLl26dPny5VLK0dHRxYsXr1q1CnOs8/bkHYO8/dY6ezIeqpC0F9y1dXd3NzQ0zJ8/v7GxcdOmTVZh5tTtx9ypxw6TupQQkyqkAjVi4MABI7jfWhwaGpo3b15LS8ucOXMWLlx44MABawNpWrZkPFThra12WhAFYdVlev0gS4hJFZ188YG3fG+I0dHR3t7e/v7+arXq3ezeULZkolLFDY1+NgCjABMdzhxw+Zm0VDHBLDjm6kXBNJQ59jdgyGBctQX4CTABi+Lyk6gCwkta5OoFKWje5kQVGxmu9iSq2MjS51y9oEcGLBJVbFC42pOoYiNLn3P1gh4ZsDhClSRDMVCDR5KhqAGodXaZPtZL88H1SpauKiaqYWOuXoRFt6zSGzALkCRDkWQo7COh5okqNi5cr2TpqmIjS59z9YIeGbBIVLFB4WpPooqNLH3O1Qt6ZMAiUcUGhas9iSo2svQ5Vy/okQELLFWQEgfe2o4CGQokFPGpgkwMOAXGkreDxl54WCoZCvVPG+zcuRPOlbKKogpe4sAN9FEgQ4GHIjJV8Im5j4e7g25bKWWpZCiklBs2bJgxY0ZbW5s3c+8GFFXwEgcOoI8CGQqSnEVkquB75D4Tjg66DdWzpZKhWL9+fVtb29q1a+NRBS9x4AD6KJChIMlZRKYKvkfuE+/ooNtQSlkqGQop5e7duyuVSrx/NlUDVPC+qOzdthNOhoIERWSqqNwwPdJVgIMiVAHv0a2XDIWubuJRhaThYDWsJDIUGn3MiZyEVKmF8oPGPHgw8aiSvapMOBkK3a1EFQ2FOQCvKvWSodCJTTyqkDQcrKuKLru+MhQ6jUQVDYU5qIXyg+k/bDzxqELScMijSn1lKHSrElU0FNaAXfnB8h8wjUcVksRB3hFXFU50GQoSFDE/q5ASc582dwfdtlLKUslQLFmyRIx/FHw3GPVH+EgNh4CGBZiAjefyE5MqYCFhi8XLL5UMRRgIoBXqT5CgJbhYHGjlNsBPgElNS5i0VAFRDVvk6mlYdMsqUcUCJN2vku5XsY+Emieq2LhwvZKlq4qNLH3O1Qt6ZMAiUcUGhas9iSo2svQ5Vy/okQGLI1RJMhQDNXgkGYoagFpnl1G/AZO4R8DLSYAJmAuXn3RVAeElLXL1ghQ0b3N6A2Yjw9WeRBUbWfqcqxf0yIBFoooNCld7ElVsZOlzrl7QIwMWiSo2KFztSVSxkaXPuXpBjwxYJKrYoHC1J1HFRpY+5+oFPTJggaUKUuLAWxuXn2wp3tBcChhIP/GpgkwsC5254oXR3Jw3HhgY4FJ+yAuBX2dMxv8NGF7iwA00lx8QJndoLgUMvJ/IVMEnBqKnF90w6m2OAa/ygyMQ5ineZPxUwUscuIEu7ifsR/gsChhSSpKfmFQhJeY+Ye4Oum2llOzKD96Ijg3syfipgpc4cANd3E/YrV0sChhSSpKfmFQhJeY4W0o1y73B/Sy78oM7nPtZ9mT8VFEJYe5nclOluJ8wqmTvVQ5QwJBSkvzEpAopMffxwnTQ7UFKyXg3lTeWdwNjMhOAKgVlKIooYJidIPmJSRVSYmZF2XGiShYTtYL9BkxKeTRdVQIUMMCrisNPTKpkryqOxPKOgj4Q7g2YZxlfyDHh3HsYk5kAVxWNRdgbMBYFjMOScCQ/MalCSkyDCQ7SVQWERX2Km0hUCfsGjEUBQ0pJ8hOTKqTE8o6CWk9UycPH/waMJHHgAJrLj6OSvKeklFwKGHg/MalCKtCBUvFvwNiVH9zZup9lTwZ7VXGnpZ51UAVjrvcE+PGacClgIP1EpoqUEpmYBhkceGEErWq0WLZkJgtVkO3kak98qiALdG/jKt8dBfls2ZJJVBnXOK72JKqMgzVowtWLoOC2kf+zim3hnHPVFuAnwAQshctPogoIL2mRqxekoHmbE1VsZLjak6hiI0ufc/WCHhmwOEKVJEMxUINHkqGoAah1dpk+q0jzwfVKlq4qJqphY65ehEW3rNIbMAuQpC6Z1CXtI6HmiSo2LlyvZOmqYiNLn3P1gh4ZsEhUsUHhak+iio0sfc7VC3pkwCJRxQaFqz2JKjay9DlXL+iRAQssVbjkI7j8ZEvxwopUafD6QZYQnyrIxLLQmSve8s3N4LhSqezatauvr29sbAzcgF8sWzL+b8C45CO4/IBYu2HFqzS4/eBLiEwVfGIgenrRXb7eljcYHBxsbW2dO3fu4bubFixYMDw8nLcTs162ZPxUKS4foXAp7ifsR/gklQZ3e/AlRKYKPjH3GXWX77aVUra3t3d2dkopq9VqR0fHmjVrvCaODWVLxk+V4vIRCo7ifsJu7SKpNLjbgy8hMlXwiTmOZsEf4R86dGjq1Kl79+5VIbZs2dLc3OwO537W3Qu3bS2S8VNF5XQ03TAcJkOhe4OBIjJV8D3SVYCDIqcT/HfrR0ZGwECYxbIlMwGoUhIZCt3dRBUNhTnYsWPH9OnT9crw8LAQYnBwUK9QB0WoUotkJgBVNMRhb8BIKg2Y9iSq6I6YA/CqUvDfvzb9k8a1SObopwpJpSFRhXQizc0HDx4UQuzZs0ct9vT0NDU1mRuoY0wv8nzWIpmJRJWwb8BIKg2Y9qSrSt4BXbp06fLly6WUo6OjixcvXrVqVd5OzDqmFw4/7Ml4qMIlH8HlJw8aN6x4+QiHH1IJMT/WkxLLA1CtO8p3G6pnh4aG5s2b19LSMmfOnIULFx44cABjlbenbMl4qJJXBrhesDbtM8CP1wSp0uD1o5N0D2JSxZ0J6dni5Y+Ojvb29vb391erVVLo7OayJTNZqJLtBLhSvD3K7aSlCohq2CJXL8KiW1bY34BZZnlTrtoC/ASYgFVw+UlUAeElLXL1ghQ0b3Oiio0MV3sSVWxk6XOuXtAjAxaJKjYoXO1JVLGRpc+5ekGPDFgcoUqSoRiowSPJUNQA1Dq7TB/rpfngeiVLVxUT1bAxVy/ColtW6Q2YBUiSoUgyFPaRUPNEFRsXrleydFWxkaXPuXpBjwxYJKrYoHC1J1HFRpY+5+oFPTJgkahig8LVnkQVG1n6nKsX9MiABZYqSIkDb21cfrKlRAuNlLOITxUktlnozBUvjOZmcFwqGQp1X+fOnTvBVEmLKKrgJQ7cQHP5ASuMExovZxGZKnhsQfT0ohtGvS1vUCoZCinlhg0bZsyY0dbWlpcwfh1FFbzEgRvo4n7CfoQvpSweWkpJkrOITBV8ge7D4e6g27ZsMhTr169va2tbu3ZtPKrgJQ7cQBf3E3YXpJSyeGgpJUnOIjJV8AW6j7u7g27bWig/uCO6n929e3elUkn/GLeNEqbHmFuyHH6yNx475CwiU0XBgSnQBm783FH++I3ADLxHt14yFDq/yUWVgjIUGjXMSXKclWXLlt1yyy3a2+rVq1euXKmn1mASUqUWyg8WqgHTyUUVDVDwGzDloSBVsleVq666SudmDSYhVcCrSr1kKHQ7ElU0FP83cFwN9NaCVCHJWUxCqtRC+UH3LngwSakS/A2YArogVUhyFpOQKlJKduWHYIZow3hUIUkcOF7aufxoCKxBnNB4OYuYVCFha+FmTR0wWjvBaalkKJYsWSLGPwq+G0w/wh/XdO9ZQcpZxKTKuAKKTbzle92XSobCmy1+A+pPkCR3+M2OnQENCzABE+DyM2mpAqIatsjVi7DollWiigVIul8l3a9iHwk1T1SxceF6JUtXFRtZ+pyrF/TIgEWiig0KV3sSVWxk6XOuXtAjAxZHqJJkKAZq8EgyFDUAtc4u0zdg0nxwvZKlq4qJatiYqxdh0S2r9AbMAiR9rE8f6+0joeaJKjYuXK9k6apiI0ufc/WCHhmwSFSxQeFqT6KKjSx9ztULemTAIlHFBoWrPYkqNrL0OVcv6JEBCyxVkBIH3tq4/GRLiRYaWUJ8qiATy0JnrnhhNDfnjQcGBriUH/JCINd5NTH834DhJQ7cQHP5AWGKExpfQmSq4BMD0dOLbhj1NseAV/nBEcj7FLsmhp8qeIkDN9DF/QT/CL94aNUYvJ/IVMEn5j5h7g66baWU7MoP3oiODe3t7Z2dnVLKarXa0dGxZs0ax2bvU6g3YHiJAzfQxf0E3wVZPLSCEu8nMlXwibnPhLuDblspJbvygzdi3oZaaGL4ryoqm4L3RemSivgJpkr8EiJTBV+gbgQ4KEgV5ZPxbiowScwiePdyQU2MCUCVkshQ6A5h2J6oouEKHhThbS00MSYAVTTW6aqioQAHGA6DhnqxyOnUTkp7VYl0FySmDRigi/hJVNHHERxgsAUN9SKmg3pz3qAMVKmFJsZEuqoEfwOmmoo5SZizgvGT3oDlEQm/jumFwxu7JoaHKiSJA0dtXH7yoIkQmlRCTKqQEssDUK07YHQbqmfZlR8wQfP2sGtieKiSlwe4XhBo7TPAT4CJDmcOuPzEpIqZf8ExV/kF01DmxZPh1cRIVBnX1uLtUe4SVcbBGjTh6kVQcNsI9SdI2yh/zlVbgJ8AE7AOLj+JKiC8pEWuXpCC5m1OVLGR4WpPooqNLH3O1Qt6ZMAiUcUGhas9iSo2svQ5Vy/okQGLw8n8L3sHgVa9VlV7AAAAAElFTkSuQmCC;" vertex="1" parent="1">
                    <mxGeometry x="40" y="150" width="270" height="359" as="geometry"/>
                </mxCell>
                <mxCell id="3" value="Sophie N&lt;div&gt;TEJ3M&lt;/div&gt;&lt;div&gt;Unit 4-19&lt;/div&gt;" style="text;html=1;align=center;verticalAlign=middle;resizable=0;points=[];autosize=1;strokeColor=none;fillColor=none;" vertex="1" parent="1">
                    <mxGeometry x="240" y="90" width="70" height="60" as="geometry"/>
                </mxCell>
                <mxCell id="4" value="full 2-bit adder" style="text;html=1;align=center;verticalAlign=middle;resizable=0;points=[];autosize=1;strokeColor=none;fillColor=none;" vertex="1" parent="1">
                    <mxGeometry x="30" y="126" width="100" height="30" as="geometry"/>
                </mxCell>
                <mxCell id="6" value="full adder" style="rounded=0;whiteSpace=wrap;html=1;fillColor=#647687;fontColor=#ffffff;strokeColor=#314354;" vertex="1" parent="1">
                    <mxGeometry x="700" y="220" width="120" height="70" as="geometry"/>
                </mxCell>
                <mxCell id="7" value="" style="triangle;whiteSpace=wrap;html=1;rotation=90;" vertex="1" parent="1">
                    <mxGeometry x="630" y="390" width="50" height="100" as="geometry"/>
                </mxCell>
                <mxCell id="8" value="full adder" style="rounded=0;whiteSpace=wrap;html=1;fillColor=#647687;fontColor=#ffffff;strokeColor=#314354;" vertex="1" parent="1">
                    <mxGeometry x="404" y="220" width="120" height="70" as="geometry"/>
                </mxCell>
                <mxCell id="9" value="ground" style="text;html=1;align=center;verticalAlign=middle;resizable=0;points=[];autosize=1;strokeColor=none;fillColor=none;" vertex="1" parent="1">
                    <mxGeometry x="625" y="460" width="60" height="30" as="geometry"/>
                </mxCell>
                <mxCell id="13" style="edgeStyle=orthogonalEdgeStyle;html=1;entryX=0.25;entryY=1;entryDx=0;entryDy=0;rounded=0;" edge="1" parent="1" source="10" target="6">
                    <mxGeometry relative="1" as="geometry"/>
                </mxCell>
                <mxCell id="10" value="C in" style="text;html=1;align=center;verticalAlign=middle;resizable=0;points=[];autosize=1;strokeColor=none;fillColor=none;" vertex="1" parent="1">
                    <mxGeometry x="630" y="340" width="50" height="30" as="geometry"/>
                </mxCell>
                <mxCell id="12" style="edgeStyle=none;html=1;exitX=0;exitY=0.5;exitDx=0;exitDy=0;entryX=0.488;entryY=1.015;entryDx=0;entryDy=0;entryPerimeter=0;endArrow=none;endFill=0;" edge="1" parent="1" source="7" target="10">
                    <mxGeometry relative="1" as="geometry"/>
                </mxCell>
                <mxCell id="15" style="edgeStyle=orthogonalEdgeStyle;shape=connector;rounded=0;html=1;entryX=0;entryY=0.25;entryDx=0;entryDy=0;strokeColor=default;align=center;verticalAlign=middle;fontFamily=Helvetica;fontSize=11;fontColor=default;labelBackgroundColor=default;endArrow=classic;" edge="1" parent="1" source="14" target="6">
                    <mxGeometry relative="1" as="geometry"/>
                </mxCell>
                <mxCell id="14" value="A1" style="text;html=1;align=center;verticalAlign=middle;resizable=0;points=[];autosize=1;strokeColor=none;fillColor=none;fontFamily=Helvetica;fontSize=11;fontColor=default;labelBackgroundColor=default;" vertex="1" parent="1">
                    <mxGeometry x="610" y="222" width="40" height="30" as="geometry"/>
                </mxCell>
                <mxCell id="16" value="B1" style="text;html=1;align=center;verticalAlign=middle;resizable=0;points=[];autosize=1;strokeColor=none;fillColor=none;fontFamily=Helvetica;fontSize=11;fontColor=default;labelBackgroundColor=default;" vertex="1" parent="1">
                    <mxGeometry x="610" y="248" width="40" height="30" as="geometry"/>
                </mxCell>
                <mxCell id="17" style="edgeStyle=orthogonalEdgeStyle;shape=connector;rounded=0;html=1;entryX=0.007;entryY=0.606;entryDx=0;entryDy=0;entryPerimeter=0;strokeColor=default;align=center;verticalAlign=middle;fontFamily=Helvetica;fontSize=11;fontColor=default;labelBackgroundColor=default;endArrow=classic;" edge="1" parent="1" source="16" target="6">
                    <mxGeometry relative="1" as="geometry"/>
                </mxCell>
                <mxCell id="18" value="sum 1" style="text;html=1;align=center;verticalAlign=middle;resizable=0;points=[];autosize=1;strokeColor=none;fillColor=none;fontFamily=Helvetica;fontSize=11;fontColor=default;labelBackgroundColor=default;" vertex="1" parent="1">
                    <mxGeometry x="870" y="222" width="50" height="30" as="geometry"/>
                </mxCell>
                <mxCell id="19" style="edgeStyle=orthogonalEdgeStyle;shape=connector;rounded=0;html=1;exitX=1;exitY=0.25;exitDx=0;exitDy=0;entryX=-0.055;entryY=0.498;entryDx=0;entryDy=0;entryPerimeter=0;strokeColor=default;align=center;verticalAlign=middle;fontFamily=Helvetica;fontSize=11;fontColor=default;labelBackgroundColor=default;endArrow=classic;" edge="1" parent="1" source="6" target="18">
                    <mxGeometry relative="1" as="geometry"/>
                </mxCell>
                <mxCell id="20" value="Carry" style="text;html=1;align=center;verticalAlign=middle;resizable=0;points=[];autosize=1;strokeColor=none;fillColor=none;fontFamily=Helvetica;fontSize=11;fontColor=default;labelBackgroundColor=default;" vertex="1" parent="1">
                    <mxGeometry x="870" y="255" width="50" height="30" as="geometry"/>
                </mxCell>
                <mxCell id="21" style="edgeStyle=orthogonalEdgeStyle;shape=connector;rounded=0;html=1;exitX=1;exitY=0.75;exitDx=0;exitDy=0;entryX=0.071;entryY=0.574;entryDx=0;entryDy=0;entryPerimeter=0;strokeColor=default;align=center;verticalAlign=middle;fontFamily=Helvetica;fontSize=11;fontColor=default;labelBackgroundColor=default;endArrow=classic;" edge="1" parent="1" source="6" target="20">
                    <mxGeometry relative="1" as="geometry"/>
                </mxCell>
                <mxCell id="24" style="edgeStyle=orthogonalEdgeStyle;shape=connector;rounded=0;html=1;entryX=0.25;entryY=1;entryDx=0;entryDy=0;strokeColor=default;align=center;verticalAlign=middle;fontFamily=Helvetica;fontSize=11;fontColor=default;labelBackgroundColor=default;endArrow=classic;" edge="1" parent="1" source="22" target="8">
                    <mxGeometry relative="1" as="geometry"/>
                </mxCell>
                <mxCell id="22" value="C in" style="text;html=1;align=center;verticalAlign=middle;resizable=0;points=[];autosize=1;strokeColor=none;fillColor=none;fontFamily=Helvetica;fontSize=11;fontColor=default;labelBackgroundColor=default;" vertex="1" parent="1">
                    <mxGeometry x="380" y="380" width="40" height="30" as="geometry"/>
                </mxCell>
                <mxCell id="23" style="edgeStyle=orthogonalEdgeStyle;shape=connector;rounded=0;html=1;entryX=0.492;entryY=1.029;entryDx=0;entryDy=0;entryPerimeter=0;strokeColor=default;align=center;verticalAlign=middle;fontFamily=Helvetica;fontSize=11;fontColor=default;labelBackgroundColor=default;endArrow=classic;" edge="1" parent="1" source="20" target="22">
                    <mxGeometry relative="1" as="geometry">
                        <Array as="points">
                            <mxPoint x="895" y="560"/>
                            <mxPoint x="400" y="560"/>
                        </Array>
                    </mxGeometry>
                </mxCell>
                <mxCell id="26" style="edgeStyle=orthogonalEdgeStyle;shape=connector;rounded=0;html=1;entryX=0;entryY=0.25;entryDx=0;entryDy=0;strokeColor=default;align=center;verticalAlign=middle;fontFamily=Helvetica;fontSize=11;fontColor=default;labelBackgroundColor=default;endArrow=classic;" edge="1" parent="1" source="25" target="8">
                    <mxGeometry relative="1" as="geometry"/>
                </mxCell>
                <mxCell id="25" value="A2" style="text;html=1;align=center;verticalAlign=middle;resizable=0;points=[];autosize=1;strokeColor=none;fillColor=none;fontFamily=Helvetica;fontSize=11;fontColor=default;labelBackgroundColor=default;" vertex="1" parent="1">
                    <mxGeometry x="320" y="222" width="40" height="30" as="geometry"/>
                </mxCell>
                <mxCell id="29" style="edgeStyle=orthogonalEdgeStyle;shape=connector;rounded=0;html=1;entryX=0;entryY=0.75;entryDx=0;entryDy=0;strokeColor=default;align=center;verticalAlign=middle;fontFamily=Helvetica;fontSize=11;fontColor=default;labelBackgroundColor=default;endArrow=classic;" edge="1" parent="1" source="28" target="8">
                    <mxGeometry relative="1" as="geometry"/>
                </mxCell>
                <mxCell id="28" value="B2" style="text;html=1;align=center;verticalAlign=middle;resizable=0;points=[];autosize=1;strokeColor=none;fillColor=none;fontFamily=Helvetica;fontSize=11;fontColor=default;labelBackgroundColor=default;" vertex="1" parent="1">
                    <mxGeometry x="320" y="257" width="40" height="30" as="geometry"/>
                </mxCell>
                <mxCell id="30" value="sum 2" style="text;html=1;align=center;verticalAlign=middle;resizable=0;points=[];autosize=1;strokeColor=none;fillColor=none;fontFamily=Helvetica;fontSize=11;fontColor=default;labelBackgroundColor=default;" vertex="1" parent="1">
                    <mxGeometry x="550" y="220" width="50" height="30" as="geometry"/>
                </mxCell>
                <mxCell id="32" style="edgeStyle=orthogonalEdgeStyle;shape=connector;rounded=0;html=1;exitX=1;exitY=0.25;exitDx=0;exitDy=0;entryX=0.043;entryY=0.61;entryDx=0;entryDy=0;entryPerimeter=0;strokeColor=default;align=center;verticalAlign=middle;fontFamily=Helvetica;fontSize=11;fontColor=default;labelBackgroundColor=default;endArrow=classic;" edge="1" parent="1" source="8" target="30">
                    <mxGeometry relative="1" as="geometry"/>
                </mxCell>
                <mxCell id="33" value="Carry" style="text;html=1;align=center;verticalAlign=middle;resizable=0;points=[];autosize=1;strokeColor=none;fillColor=none;fontFamily=Helvetica;fontSize=11;fontColor=default;labelBackgroundColor=default;" vertex="1" parent="1">
                    <mxGeometry x="550" y="257" width="50" height="30" as="geometry"/>
                </mxCell>
                <mxCell id="34" style="edgeStyle=orthogonalEdgeStyle;shape=connector;rounded=0;html=1;exitX=1;exitY=0.75;exitDx=0;exitDy=0;entryX=0.094;entryY=0.517;entryDx=0;entryDy=0;entryPerimeter=0;strokeColor=default;align=center;verticalAlign=middle;fontFamily=Helvetica;fontSize=11;fontColor=default;labelBackgroundColor=default;endArrow=classic;" edge="1" parent="1" source="8" target="33">
                    <mxGeometry relative="1" as="geometry"/>
                </mxCell>
            </root>
        </mxGraphModel>
    </diagram>
</mxfile>